<?xml version="1.0" encoding="UTF-8" standalone="no"?>
<!-- Created with Inkscape (http://www.inkscape.org/) -->

<svg
   xmlns:dc="http://purl.org/dc/elements/1.1/"
   xmlns:cc="http://creativecommons.org/ns#"
   xmlns:rdf="http://www.w3.org/1999/02/22-rdf-syntax-ns#"
   xmlns:svg="http://www.w3.org/2000/svg"
   xmlns="http://www.w3.org/2000/svg"
   xmlns:sodipodi="http://sodipodi.sourceforge.net/DTD/sodipodi-0.dtd"
   xmlns:inkscape="http://www.inkscape.org/namespaces/inkscape"
   version="1.1"
   id="svg2"
   xml:space="preserve"
   width="1592.7003"
   height="444.8595"
   viewBox="0 0 1592.7004 444.8595"
   sodipodi:docname="GenPay_logo1.svg"
   inkscape:version="0.92.2 5c3e80d, 2017-08-06"><metadata
     id="metadata8"><rdf:RDF><cc:Work
         rdf:about=""><dc:format>image/svg+xml</dc:format><dc:type
           rdf:resource="http://purl.org/dc/dcmitype/StillImage" /><dc:title></dc:title></cc:Work></rdf:RDF></metadata><defs
     id="defs6"><clipPath
       clipPathUnits="userSpaceOnUse"
       id="clipPath20"><path
         d="M 0,768 H 1366 V 0 H 0 Z"
         id="path18"
         inkscape:connector-curvature="0" /></clipPath></defs><sodipodi:namedview
     pagecolor="#ffffff"
     bordercolor="#666666"
     borderopacity="1"
     objecttolerance="10"
     gridtolerance="10"
     guidetolerance="10"
     inkscape:pageopacity="0"
     inkscape:pageshadow="2"
     inkscape:window-width="1440"
     inkscape:window-height="855"
     id="namedview4"
     showgrid="false"
     inkscape:zoom="0.58701254"
     inkscape:cx="822.17253"
     inkscape:cy="-63.07955"
     inkscape:window-x="0"
     inkscape:window-y="1"
     inkscape:window-maximized="1"
     inkscape:current-layer="g10" /><g
     id="g10"
     inkscape:groupmode="layer"
     inkscape:label="GenPay_logo_rgb"
     transform="matrix(1.3333333,0,0,-1.3333333,-51.307481,1012.7747)"><g
       id="g593"
       transform="matrix(2.2457066,0,0,2.2457066,-903.39052,-484.53319)"><g
         transform="translate(614.1074,445.6094)"
         id="g22"><path
           inkscape:connector-curvature="0"
           id="path24"
           style="fill:#000000;fill-opacity:1;fill-rule:nonzero;stroke:none"
           d="m 0,0 c -4.635,2.434 -8.228,5.831 -10.778,10.19 -2.553,4.359 -3.829,9.404 -3.829,15.137 v 26.388 c 0,5.731 1.276,10.797 3.829,15.195 2.55,4.398 6.143,7.794 10.778,10.191 4.633,2.394 9.973,3.592 16.021,3.592 5.967,0 11.25,-1.178 15.844,-3.534 4.594,-2.356 8.167,-5.556 10.72,-9.6 2.551,-4.046 3.828,-8.541 3.828,-13.489 v -0.824 c 0,-0.394 -0.138,-0.727 -0.412,-1.002 C 45.725,51.969 45.392,51.832 45,51.832 H 31.217 c -0.394,0 -0.727,0.137 -1.001,0.412 -0.277,0.275 -0.412,0.608 -0.412,1.002 V 53.6 c 0,3.611 -1.258,6.655 -3.77,9.129 -2.514,2.473 -5.851,3.71 -10.013,3.71 -4.241,0 -7.638,-1.316 -10.19,-3.946 C 3.278,59.861 2.003,56.427 2.003,52.186 v -27.33 c 0,-4.241 1.373,-7.677 4.123,-10.307 2.748,-2.632 6.243,-3.946 10.484,-3.946 4.082,0 7.342,1.078 9.778,3.239 2.432,2.159 3.651,5.163 3.651,9.012 v 5.3 c 0,0.393 -0.197,0.589 -0.589,0.589 H 16.257 c -0.395,0 -0.728,0.137 -1.002,0.413 -0.276,0.274 -0.412,0.608 -0.412,1.001 v 10.838 c 0,0.392 0.136,0.725 0.412,1.001 0.274,0.275 0.607,0.412 1.002,0.412 H 45 c 0.392,0 0.725,-0.137 1.001,-0.412 0.274,-0.276 0.412,-0.609 0.412,-1.001 V 25.445 C 46.413,19.476 45.156,14.293 42.644,9.896 40.129,5.496 36.577,2.14 31.982,-0.177 27.389,-2.493 22.067,-3.651 16.021,-3.651 9.973,-3.651 4.633,-2.435 0,0" /></g><g
         transform="translate(683.7285,483.1875)"
         id="g26"><path
           inkscape:connector-curvature="0"
           id="path28"
           style="fill:#000000;fill-opacity:1;fill-rule:nonzero;stroke:none"
           d="m 0,0 c -0.315,-1.021 -0.589,-2.278 -0.825,-3.77 0,-0.393 0.195,-0.588 0.589,-0.588 h 20.38 c 0.47,0 0.627,0.195 0.47,0.588 -0.393,2.278 -0.589,3.376 -0.589,3.299 -0.706,2.356 -1.943,4.182 -3.71,5.478 C 14.548,6.303 12.369,6.95 9.777,6.95 4.829,6.95 1.569,4.633 0,0 m 37.695,-13.782 c -0.079,-0.943 -0.589,-1.413 -1.531,-1.413 h -36.4 c -0.471,0 -0.629,-0.198 -0.471,-0.59 0.235,-1.571 0.666,-3.142 1.296,-4.712 2.041,-4.399 6.203,-6.597 12.486,-6.597 5.026,0.077 8.992,2.12 11.899,6.126 0.312,0.471 0.666,0.707 1.059,0.707 0.236,0 0.51,-0.159 0.825,-0.471 l 8.482,-8.364 c 0.391,-0.394 0.589,-0.748 0.589,-1.06 0,-0.158 -0.158,-0.472 -0.472,-0.943 -2.591,-3.221 -5.93,-5.714 -10.013,-7.48 -4.084,-1.767 -8.56,-2.65 -13.428,-2.65 -6.756,0 -12.469,1.531 -17.141,4.593 -4.673,3.064 -8.03,7.343 -10.071,12.841 -1.65,3.926 -2.474,9.07 -2.474,15.432 0,4.318 0.589,8.128 1.767,11.426 1.805,5.576 4.965,10.013 9.483,13.311 4.515,3.299 9.874,4.948 16.079,4.948 7.853,0 14.154,-2.279 18.907,-6.833 4.75,-4.554 7.637,-10.641 8.659,-18.259 0.47,-2.985 0.627,-6.322 0.47,-10.012" /></g><g
         transform="translate(773.7256,498.6191)"
         id="g30"><path
           inkscape:connector-curvature="0"
           id="path32"
           style="fill:#000000;fill-opacity:1;fill-rule:nonzero;stroke:none"
           d="m 0,0 c 3.848,-3.849 5.772,-9.07 5.772,-15.667 v -38.638 c 0,-0.394 -0.137,-0.727 -0.412,-1.002 -0.276,-0.276 -0.609,-0.412 -1.001,-0.412 H -9.424 c -0.393,0 -0.726,0.136 -1.001,0.412 -0.276,0.275 -0.412,0.608 -0.412,1.002 v 35.222 c 0,3.14 -0.884,5.693 -2.65,7.657 -1.768,1.962 -4.105,2.945 -7.01,2.945 -2.906,0 -5.242,-0.983 -7.009,-2.945 -1.766,-1.964 -2.65,-4.517 -2.65,-7.657 v -35.222 c 0,-0.394 -0.138,-0.727 -0.412,-1.002 -0.277,-0.276 -0.61,-0.412 -1.002,-0.412 h -13.783 c -0.393,0 -0.726,0.136 -1.001,0.412 -0.276,0.275 -0.412,0.608 -0.412,1.002 V 3.417 c 0,0.392 0.136,0.725 0.412,1.001 0.275,0.274 0.608,0.412 1.001,0.412 h 13.783 c 0.392,0 0.725,-0.138 1.002,-0.412 0.274,-0.276 0.412,-0.609 0.412,-1.001 v -4.123 c 0,-0.236 0.077,-0.395 0.235,-0.472 0.156,-0.079 0.275,-0.04 0.354,0.118 3.219,4.554 8.01,6.832 14.372,6.832 C -8.914,5.772 -3.849,3.848 0,0" /></g><g
         transform="translate(833.332,490.9033)"
         id="g34"><path
           inkscape:connector-curvature="0"
           id="path36"
           style="fill:#000000;fill-opacity:1;fill-rule:nonzero;stroke:none"
           d="m 0,0 c 2.904,2.866 4.358,6.656 4.358,11.368 0,4.789 -1.454,8.638 -4.358,11.544 -2.906,2.905 -6.676,4.359 -11.309,4.359 H -33.69 c -0.316,0 -0.472,-0.159 -0.472,-0.471 V -3.828 c 0,-0.315 0.156,-0.471 0.472,-0.471 h 22.381 C -6.676,-4.299 -2.906,-2.867 0,0 m 6.302,28.214 c 4.2,-4.241 6.302,-9.818 6.302,-16.728 0,-6.833 -2.14,-12.331 -6.419,-16.492 -4.282,-4.164 -9.916,-6.243 -16.905,-6.243 h -22.97 c -0.316,0 -0.472,-0.159 -0.472,-0.472 v -35.104 c 0,-0.786 -0.394,-1.178 -1.178,-1.178 h -6.008 c -0.786,0 -1.177,0.392 -1.177,1.178 v 80.221 c 0,0.785 0.391,1.178 1.177,1.178 h 30.982 c 6.909,0 12.466,-2.12 16.668,-6.36" /></g><g
         transform="translate(883.9854,452.6191)"
         id="g38"><path
           inkscape:connector-curvature="0"
           id="path40"
           style="fill:#000000;fill-opacity:1;fill-rule:nonzero;stroke:none"
           d="m 0,0 c 3.376,2.315 5.065,5.437 5.065,9.365 v 9.188 c 0,0.313 -0.158,0.471 -0.47,0.471 H -7.774 c -5.184,0 -9.347,-1.06 -12.488,-3.18 -3.141,-2.12 -4.712,-5.066 -4.712,-8.835 0,-3.457 1.197,-6.067 3.593,-7.834 2.396,-1.767 5.517,-2.651 9.365,-2.651 4.633,0 8.639,1.159 12.016,3.476 M 7.657,45.411 C 11.504,41.798 13.43,37.007 13.43,31.04 V -8.541 c 0,-0.786 -0.395,-1.178 -1.179,-1.178 H 6.243 c -0.785,0 -1.178,0.392 -1.178,1.178 v 4.83 c 0,0.156 -0.058,0.274 -0.176,0.354 -0.118,0.077 -0.256,0.038 -0.412,-0.119 -1.964,-2.355 -4.517,-4.142 -7.658,-5.359 -3.141,-1.217 -6.636,-1.826 -10.483,-1.826 -5.577,0 -10.249,1.414 -14.019,4.241 -3.769,2.827 -5.654,7.145 -5.654,12.957 0,5.891 2.139,10.544 6.42,13.96 4.279,3.416 10.229,5.124 17.847,5.124 H 4.595 c 0.312,0 0.47,0.156 0.47,0.472 v 4.475 c 0,4.006 -1.119,7.166 -3.357,9.484 -2.238,2.315 -5.713,3.474 -10.425,3.474 -3.769,0 -6.833,-0.726 -9.188,-2.178 -2.357,-1.454 -3.811,-3.476 -4.359,-6.068 -0.236,-0.785 -0.707,-1.138 -1.414,-1.059 l -6.361,0.824 c -0.864,0.156 -1.218,0.472 -1.06,0.942 0.627,4.398 2.984,7.97 7.068,10.72 4.083,2.748 9.188,4.123 15.314,4.123 7.068,0 12.526,-1.808 16.374,-5.419" /></g><g
         transform="translate(905.8955,420.5186)"
         id="g42"><path
           inkscape:connector-curvature="0"
           id="path44"
           style="fill:#000000;fill-opacity:1;fill-rule:nonzero;stroke:none"
           d="M 0,0 V 4.712 C 0,5.498 0.393,5.89 1.179,5.89 h 0.47 c 3.063,0.079 5.438,0.53 7.127,1.354 1.688,0.825 3.14,2.357 4.359,4.595 1.217,2.238 2.533,5.636 3.946,10.189 0.156,0.315 0.156,0.549 0,0.707 l -19.908,57.957 -0.117,0.472 c 0,0.548 0.353,0.824 1.059,0.824 h 6.244 c 0.706,0 1.178,-0.314 1.413,-0.942 L 21.087,33.455 c 0.077,-0.158 0.194,-0.235 0.352,-0.235 0.158,0 0.275,0.077 0.354,0.235 l 15.079,47.591 c 0.235,0.628 0.706,0.942 1.413,0.942 h 6.126 c 0.863,0 1.178,-0.432 0.943,-1.296 L 23.561,17.198 C 21.676,11.938 19.908,8.051 18.259,5.536 16.61,3.024 14.549,1.277 12.075,0.294 9.601,-0.687 6.126,-1.178 1.649,-1.178 H 0.825 C 0.274,-1.178 0,-0.784 0,0" /></g><g
         transform="translate(510.8027,405.4268)"
         id="g46"><path
           inkscape:connector-curvature="0"
           id="path48"
           style="fill:#113182;fill-opacity:1;fill-rule:nonzero;stroke:none"
           d="m 0,0 h -34.215 c -31.578,0 -57.178,25.599 -57.178,57.178 v 34.215 c 0,31.578 25.6,57.177 57.178,57.177 H 0 c 31.578,0 57.178,-25.599 57.178,-57.177 V 57.178 C 57.178,25.599 31.578,0 0,0" /></g><g
         transform="translate(465.0937,509.1035)"
         id="g190"><path
           inkscape:connector-curvature="0"
           id="path192"
           style="fill:#ffffff;fill-opacity:1;fill-rule:nonzero;stroke:none"
           d="m 0,0 c -16.207,-16.207 -16.207,-42.577 0,-58.783 16.206,-16.207 42.577,-16.207 58.783,0 4.591,4.59 8.585,10.703 10.575,16.463 l -3.587,3.587 -5.169,5.17 -9.904,9.903 -7.536,-7.537 13.421,-13.421 c -1.269,-2.111 -3.517,-4.811 -5.336,-6.629 -12.051,-12.052 -31.659,-12.052 -43.711,0 -12.051,12.051 -12.051,31.659 0,43.711 12.052,12.051 31.66,12.051 43.711,0 0.084,-0.084 0.162,-0.173 0.245,-0.258 l 7.536,7.536 C 58.945,-0.173 58.868,-0.084 58.783,0 42.577,16.207 16.206,16.207 0,0" /></g><g
         transform="translate(499.1113,472.3125)"
         id="g194"><path
           inkscape:connector-curvature="0"
           id="path196"
           style="fill:#ffffff;fill-opacity:1;fill-rule:nonzero;stroke:none"
           d="m 0,0 c -1.329,-0.796 -2.884,-1.264 -4.554,-1.264 -4.864,0 -8.807,3.879 -8.807,8.663 0,4.785 3.943,8.663 8.807,8.663 2.507,0 4.765,-1.036 6.368,-2.69 l 7.562,7.438 c -3.558,3.595 -8.521,5.839 -14.013,5.839 -10.791,0 -19.571,-8.635 -19.571,-19.25 0,-10.614 8.78,-19.25 19.571,-19.25 4.63,0 8.883,1.597 12.237,4.251 z" /></g></g></g></svg>